<svg xmlns="http://www.w3.org/2000/svg" width="30" height="20" viewBox="0 0 30 20">
    <g fill="none">
        <path fill="#FFF" d="M0 0L30 0 30 20 0 20z"/>
        <path fill="red" d="M6.25 7.5l.458 1.708 1.709-.458L7.167 10l1.25 1.25-1.709-.458L6.25 12.5l-.458-1.708-1.709.458L5.333 10l-1.25-1.25 1.709.458L6.25 7.5zm5.833 0l.459 1.708 1.708-.458L13 10l1.25 1.25-1.708-.458-.459 1.708-.458-1.708-1.708.458 1.25-1.25-1.25-1.25 1.708.458.458-1.708zm5.834 0l.458 1.708 1.708-.458-1.25 1.25 1.25 1.25-1.708-.458-.458 1.708-.459-1.708-1.708.458L17 10l-1.25-1.25 1.708.458.459-1.708zm5.833 0l.458 1.708 1.709-.458-1.25 1.25 1.25 1.25-1.709-.458-.458 1.708-.458-1.708-1.709.458 1.25-1.25-1.25-1.25 1.709.458.458-1.708z"/>
        <path fill="#B3DDF2" d="M0 3.333L30 3.333 30 6.667 0 6.667 0 13.333 30 13.333 30 16.667 0 16.667z"/>
    </g>
</svg>
